/* XPM */
static char * bottom_left_inactive_xpm[] = {
"5 5 3 1",
" 	c #000000",
".	c #FBEFCA",
"+	c #110011",
" ...+",
" ....",
" ....",
" ....",
"     "};
