/* XPM */
static char * bottom_inactive_xpm[] = {
"5 5 3 1",
" 	c #110011",
".	c #FBEFCA",
"+	c #000000",
"     ",
".....",
".....",
".....",
"+++++"};
