/* XPM */
static char * memu_active_xpm[] = {
"24 29 3 1",
" 	c #000000",
".	c #FBEFCA",
"+	c #FFFFFF",
"                        ",
"........................",
"........................",
"........................",
"                     ...",
" +++++++++++++++++++ ...",
" +                 + ...",
" + +++++++++++++++ + ...",
" + +++++++++++++++ + ...",
" + ++    +++    ++ + ...",
" + ++ ++ +++ ++ ++ + ...",
" + ++ ++ +++ ++ ++ + ...",
" + ++           ++ + ...",
" + +++++ +++ +++++ + ...",
" + +++++ +++ +++++ + ...",
" + +++++ +++ +++++ + ...",
" + ++           ++ + ...",
" + ++ ++ +++ ++ ++ + ...",
" + ++ ++ +++ ++ ++ + ...",
" + ++    +++    ++ + ...",
" + +++++++++++++++ + ...",
" + +++++++++++++++ + ...",
" +                 + ...",
" +++++++++++++++++++ ...",
"                     ...",
"........................",
"........................",
"........................",
"                        "};
