/* XPM */
static char * close_prelight_xpm[] = {
"24 29 5 1",
" 	c None",
".	c #000000",
"+	c #FBEFCA",
"@	c #FFFFFF",
"#	c #BB4444",
"........................",
"++++++++++++++++++++++++",
"++++++++++++++++++++++++",
"++++++++++++++++++++++++",
".....................+++",
".@@@@@@@@@@@@@@@@@@@.+++",
".@.................@.+++",
".@.###############.@.+++",
".@.###############.@.+++",
".@.##....###....##.@.+++",
".@.##.##.###.##.##.@.+++",
".@.##.##.###.##.##.@.+++",
".@.##...........##.@.+++",
".@.#####.###.#####.@.+++",
".@.#####.###.#####.@.+++",
".@.#####.###.#####.@.+++",
".@.##...........##.@.+++",
".@.##.##.###.##.##.@.+++",
".@.##.##.###.##.##.@.+++",
".@.##....###....##.@.+++",
".@.###############.@.+++",
".@.###############.@.+++",
".@.................@.+++",
".@@@@@@@@@@@@@@@@@@@.+++",
".....................+++",
"++++++++++++++++++++++++",
"++++++++++++++++++++++++",
"++++++++++++++++++++++++",
"........................"};
