/* XPM */
static char * maximize_prelight_xpm[] = {
"24 29 6 1",
" 	c None",
".	c #000000",
"+	c #FBEFCA",
"@	c #FFFFFF",
"#	c #110011",
"$	c #418D51",
"........................",
"++++++++++++++++++++++++",
"++++++++++++++++++++++++",
"++++++++++++++++++++++++",
"+++.....................",
"+++.@@@@@@@@@@@@@@@@@@@.",
"+++.@#################@.",
"+++.@.$$$$$$$$$.$$$$$#@.",
"+++.@.$$$$$$$$$.$$$$$#@.",
"+++.@.$$$$$$$$$.$$$$$#@.",
"+++.@.$$$$$$$$$.$$$$$#@.",
"+++.@.$$$$$$$$$.$$$$$#@.",
"+++.@.$$$$$$$$$......#@.",
"+++.@.$$$$$$$$$.$$$$$#@.",
"+++.@.$$$$$$$$$.$$$$$#@.",
"+++.@.$$$$$$$$$.$$$$$#@.",
"+++.@...........$$$$$#@.",
"+++.@.$$$$$.$$$$$$$$$#@.",
"+++.@.$$$$$.$$$$$$$$$#@.",
"+++.@.$$$$$.$$$$$$$$$#@.",
"+++.@.$$$$$.$$$$$$$$$#@.",
"+++.@.$$$$$.$$$$$$$$$#@.",
"+++.@................#@.",
"+++.@@@@@@@@@@@@@@@@@@@.",
"+++.....................",
"++++++++++++++++++++++++",
"++++++++++++++++++++++++",
"++++++++++++++++++++++++",
"........................"};
