/* XPM */
static char * maximize_inactive_xpm[] = {
"24 29 4 1",
" 	c #000000",
".	c #FBEFCA",
"+	c #FFFFFF",
"@	c #110011",
"                        ",
"........................",
"........................",
"........................",
"...                     ",
"... +++++++++++++++++++ ",
"... +@@@@@@@@@@@@@@@@@+ ",
"... + +++++++++ +++++@+ ",
"... + +++++++++ +++++@+ ",
"... + +++++++++ +++++@+ ",
"... + +++++++++ +++++@+ ",
"... + +++++++++ +++++@+ ",
"... + +++++++++      @+ ",
"... + +++++++++ +++++@+ ",
"... + +++++++++ +++++@+ ",
"... + +++++++++ +++++@+ ",
"... +           +++++@+ ",
"... + +++++ +++++++++@+ ",
"... + +++++ +++++++++@+ ",
"... + +++++ +++++++++@+ ",
"... + +++++ +++++++++@+ ",
"... + +++++ +++++++++@+ ",
"... +                @+ ",
"... +++++++++++++++++++ ",
"...                     ",
"........................",
"........................",
"........................",
"                        "};
