/* XPM */
static char * title_5_active_xpm[] = {
"2 29 5 1",
" 	c None",
".	c #000000",
"+	c #FBEFCA",
"@	c #110011",
"#	c #BB4444",
"..",
"++",
"++",
"++",
"@.",
"#.",
"#.",
"#.",
"#.",
"#.",
"#.",
"#.",
"#.",
"#.",
"#.",
"#.",
"#.",
"#.",
"#.",
"#.",
"#.",
"#.",
"#.",
"#.",
"@@",
"++",
"++",
"++",
".."};
