/* XPM */
static char * title_3_active_xpm[] = {
"2 29 4 1",
" 	c #000000",
".	c #FBEFCA",
"+	c #110011",
"@	c #BB4444",
"  ",
"..",
"..",
"..",
"++",
"@@",
"@@",
"@@",
"@@",
"@@",
"@@",
"@@",
"@@",
"@@",
"@@",
"@@",
"@@",
"@@",
"@@",
"@@",
"@@",
"@@",
"@@",
"@@",
"++",
"..",
"..",
"..",
"  "};
