/* XPM */
static char * title_5_inactive_xpm[] = {
"1 29 3 1",
" 	c None",
".	c #000000",
"+	c #FBEFCA",
".",
"+",
"+",
"+",
"+",
"+",
"+",
"+",
"+",
"+",
"+",
"+",
"+",
"+",
"+",
"+",
"+",
"+",
"+",
"+",
"+",
"+",
"+",
"+",
"+",
"+",
"+",
"+",
"."};
