/* XPM */
static char * top_right_active_xpm[] = {
"4 29 2 1",
" 	c #000000",
".	c #FBEFCA",
"    ",
"... ",
"... ",
"... ",
"... ",
"... ",
"... ",
"... ",
"... ",
"... ",
"... ",
"... ",
"... ",
"... ",
"... ",
"... ",
"... ",
"... ",
"... ",
"... ",
"... ",
"... ",
"... ",
"... ",
"... ",
"... ",
"... ",
"... ",
"... "};
