/* XPM */
static char * hide_prelight_xpm[] = {
"24 29 5 1",
" 	c None",
".	c #000000",
"+	c #EEEEEE",
"@	c #FFFFFF",
"#	c #E0C200",
"........................",
"++++++++++++++++++++++++",
"++++++++++++++++++++++++",
"++++++++++++++++++++++++",
"+++.....................",
"+++.@@@@@@@@@@@@@@@@@@@.",
"+++.@.................@.",
"+++.@.###############.@.",
"+++.@.###############.@.",
"+++.@.###############.@.",
"+++.@............####.@.",
"+++.@.##########.####.@.",
"+++.@.##########.####.@.",
"+++.@.##########.####.@.",
"+++.@.##########.####.@.",
"+++.@........###.####.@.",
"+++.@.######.###.####.@.",
"+++.@.######.###.####.@.",
"+++.@.######.###.####.@.",
"+++.@.######.###.####.@.",
"+++.@.######.###.####.@.",
"+++.@.######.###.####.@.",
"+++.@.................@.",
"+++.@@@@@@@@@@@@@@@@@@@.",
"+++.....................",
"++++++++++++++++++++++++",
"++++++++++++++++++++++++",
"++++++++++++++++++++++++",
"........................"};
