/* XPM */
static char * left_active_xpm[] = {
"5 4 4 1",
" 	c None",
".	c #110011",
"+	c #EEEEEE",
"@	c #000000",
".+++@",
".+++@",
".+++@",
".+++@"};
