/* XPM */
static char * maximize_pressed_xpm[] = {
"24 29 4 1",
" 	c None",
".	c #000000",
"+	c #EEEEEE",
"@	c #FFFFFF",
"........................",
"++++++++++++++++++++++++",
"++++++++++++++++++++++++",
"++++++++++++++++++++++++",
"+++.....................",
"+++.....................",
"+++..@@@@@@@@@@@@@@@@@..",
"+++..@.........@.....@..",
"+++..@.........@.....@..",
"+++..@.........@.....@..",
"+++..@.........@.....@..",
"+++..@.........@.....@..",
"+++..@.........@@@@@@@..",
"+++..@.........@.....@..",
"+++..@.........@.....@..",
"+++..@.........@.....@..",
"+++..@@@@@@@@@@@.....@..",
"+++..@.....@.........@..",
"+++..@.....@.........@..",
"+++..@.....@.........@..",
"+++..@.....@.........@..",
"+++..@.....@.........@..",
"+++..@@@@@@@@@@@@@@@@@..",
"+++.....................",
"+++.....................",
"++++++++++++++++++++++++",
"++++++++++++++++++++++++",
"++++++++++++++++++++++++",
"........................"};
