/* XPM */
static char * title_2_inactive_xpm[] = {
"2 29 5 1",
" 	c None",
".	c #000000",
"+	c #EEEEEE",
"@	c #110011",
"#	c #4682B4",
"..",
"++",
"++",
"++",
".@",
".#",
".#",
".#",
".#",
".#",
".#",
".#",
".#",
".#",
".#",
".#",
".#",
".#",
".#",
".#",
".#",
".#",
".#",
".#",
"@@",
"++",
"++",
"++",
".."};
