/* XPM */
static char * top_left_inactive_xpm[] = {
"4 29 3 1",
" 	c None",
".	c #000000",
"+	c #EEEEEE",
"....",
".+++",
".+++",
".+++",
".+++",
".+++",
".+++",
".+++",
".+++",
".+++",
".+++",
".+++",
".+++",
".+++",
".+++",
".+++",
".+++",
".+++",
".+++",
".+++",
".+++",
".+++",
".+++",
".+++",
".+++",
".+++",
".+++",
".+++",
".+++"};
